<?xml version="1.0" encoding="utf-8" standalone="no"?>
<!DOCTYPE svg PUBLIC "-//W3C//DTD SVG 1.1//EN" "http://www.w3.org/Graphics/SVG/1.1/DTD/svg11.dtd">
<svg version="1.1" width="612pt" height="792pt" viewBox="0 0 612 792" overflow="visible" xmlns="http://www.w3.org/2000/svg">
  <path d="M0,444.1059 L227.5741,394.0331 L184.9243,427.6967 L269.9622,403.068 L252.432,425.5947 L351.0901,413.9045 L331.76,405.411 L415.8167,398.6748 L391.9553,420.4328 L575.2839,421.5218" stroke="#000000" stroke-width="0.24" fill="none" />
  <path d="M6.924456,403.7756 L218.8886,393.4626 L182.1227,418.7578 L266.098,400.7386 L245.2215,429.4439 L361.9402,414.0237 L331.3371,400.7386 L425.2815,397.4174 L397.4648,418.7661 L593.9307,392.1029" stroke="#000000" stroke-width="0.24" fill="none" />
  <path d="M1.598721E-14,467.8177 L226.2428,399.3152 L188.9972,429.4439 L271.7916,405.0089 L253.0502,431.8162 L361.8858,416.5022 L339.317,407.0049 L429.7889,400.9759 L403.6933,415.9216 L581.8666,355.8849" stroke="#000000" stroke-width="0.24" fill="none" />
</svg>