<?xml version="1.0" encoding="utf-8" standalone="no"?>
<!DOCTYPE svg PUBLIC "-//W3C//DTD SVG 1.1//EN" "http://www.w3.org/Graphics/SVG/1.1/DTD/svg11.dtd">
<svg version="1.1" width="612pt" height="792pt" viewBox="0 0 612 792" overflow="visible" xmlns="http://www.w3.org/2000/svg">
  <path d="M219.8511,441.7264 L219.8511,353.2093" stroke="#000000" stroke-width="0.24" fill="none" />
  <path d="M248.5326,441.7264 L219.8511,441.7264" stroke="#000000" stroke-width="0.24" fill="none" />
  <path d="M116.4164,442.9873 C114.3815,442.9991 114.4703,441.8555 114.4717,440.4728 L114.4805,397.8577" stroke="#000000" stroke-width="0.24" fill="none" />
  <path d="M150.1201,442.9981 L116.4164,442.9873" stroke="#000000" stroke-width="0.24" fill="none" />
  <path d="M152.0106,441.0912 C152.0271,442.4915 151.5444,443.0041 150.1201,442.9981" stroke="#000000" stroke-width="0.24" fill="none" />
  <path d="M152.0125,426.959 L152.0106,441.0912" stroke="#000000" stroke-width="0.24" fill="none" />
  <path d="M150.1181,425.0854 C151.5412,425.051 152.0307,425.5423 152.0125,426.959" stroke="#000000" stroke-width="0.24" fill="none" />
  <path d="M140.5547,425.1426 C143.7311,424.9458 146.9311,425.1626 150.1181,425.0854" stroke="#000000" stroke-width="0.24" fill="none" />
  <path d="M137.7861,422.3317 C137.7787,424.4975 138.2871,425.2831 140.5547,425.1426" stroke="#000000" stroke-width="0.24" fill="none" />
  <path d="M137.8679,355.5822 L137.7861,422.3317" stroke="#000000" stroke-width="0.24" fill="none" />
  <path d="M135.5638,353.244 C137.388,353.2157 137.8725,353.787 137.8679,355.5822" stroke="#000000" stroke-width="0.24" fill="none" />
  <path d="M117.0828,353.2064 C123.2397,353.3695 129.4044,353.3398 135.5638,353.244" stroke="#000000" stroke-width="0.24" fill="none" />
  <path d="M114.4576,355.8946 C114.4454,353.8521 114.9108,353.1489 117.0828,353.2064" stroke="#000000" stroke-width="0.24" fill="none" />
  <path d="M114.5013,397.8577 L114.4576,355.8946" stroke="#000000" stroke-width="0.24" fill="none" />
  <path d="M102.6881,388.2136 L105.2518,388.3385" stroke="#000000" stroke-width="0.24" fill="none" />
  <path d="M92.68335,388.237 L102.6881,388.2136" stroke="#000000" stroke-width="0.24" fill="none" />
  <path d="M90.63807,386.3033 C90.60727,387.8825 91.21283,388.2763 92.68335,388.237" stroke="#000000" stroke-width="0.24" fill="none" />
  <path d="M90.63705,373.0377 L90.63807,386.3033" stroke="#000000" stroke-width="0.24" fill="none" />
  <path d="M92.67707,371.0653 C91.23004,371.0434 90.60517,371.4613 90.63705,373.0377" stroke="#000000" stroke-width="0.24" fill="none" />
  <path d="M104.204,371.1133 L92.67707,371.0653" stroke="#000000" stroke-width="0.24" fill="none" />
  <path d="M106.2883,368.9737 C106.3198,370.5623 105.8661,371.1584 104.204,371.1133" stroke="#000000" stroke-width="0.24" fill="none" />
  <path d="M106.2759,355.2733 L106.2883,368.9737" stroke="#000000" stroke-width="0.24" fill="none" />
  <path d="M104.0936,353.2209 C105.6503,353.215 106.3097,353.5816 106.2759,355.2733" stroke="#000000" stroke-width="0.24" fill="none" />
  <path d="M69.94485,353.1863 L104.0936,353.2209" stroke="#000000" stroke-width="0.24" fill="none" />
  <path d="M67.33973,355.7346 C67.32405,353.6455 68.03574,353.174 69.94485,353.1863" stroke="#000000" stroke-width="0.24" fill="none" />
  <path d="M67.3791,440.5552 L67.39684,396.1872 L67.33973,355.7346" stroke="#000000" stroke-width="0.24" fill="none" />
  <path d="M69.42139,442.9941 C67.48473,443.0049 67.37642,442.0285 67.3791,440.5552" stroke="#000000" stroke-width="0.24" fill="none" />
  <path d="M105.9621,442.9824 L69.42139,442.9941" stroke="#000000" stroke-width="0.24" fill="none" />
  <path d="M107.8259,441.0386 C107.8415,442.415 107.4026,442.9866 105.9621,442.9824" stroke="#000000" stroke-width="0.24" fill="none" />
  <path d="M107.8301,426.9023 L107.8259,441.0386" stroke="#000000" stroke-width="0.24" fill="none" />
  <path d="M105.8985,425.071 C107.2976,425.0485 107.8484,425.4575 107.8301,426.9023" stroke="#000000" stroke-width="0.24" fill="none" />
  <path d="M92.6312,425.1105 L105.8985,425.071" stroke="#000000" stroke-width="0.24" fill="none" />
  <path d="M90.62898,423.1128 C90.60701,424.6313 91.11201,425.136 92.6312,425.1105" stroke="#000000" stroke-width="0.24" fill="none" />
  <path d="M90.6305,407.4552 L90.62898,423.1128" stroke="#000000" stroke-width="0.24" fill="none" />
  <path d="M92.89594,405.2489 C91.25137,405.2088 90.59414,405.6748 90.6305,407.4552" stroke="#000000" stroke-width="0.24" fill="none" />
  <path d="M105.2518,388.3385 L105.1691,404.119 C105.1595,404.5183 103.9845,405.201 103.3342,405.2216 L92.89594,405.2489" stroke="#000000" stroke-width="0.24" fill="none" />
  <path d="M303.1288,381.696 L294.6431,381.6807" stroke="#000000" stroke-width="0.24" fill="none" />
  <path d="M304.9897,380.0019 C305.0684,381.4118 304.3567,381.717 303.1288,381.696" stroke="#000000" stroke-width="0.24" fill="none" />
  <path d="M265.5075,399.0464 C259.6347,395.1545 256.4866,389.6382 256.0522,382.7481 C255.7761,378.3669 255.8785,373.9009 256.4016,369.5439 C257.2692,362.3173 261.7384,357.7246 268.5152,355.6314 C277.4552,352.8701 286.4039,353.078 295.0974,356.8132 C300.6848,359.2138 304.0211,363.4039 304.4888,369.5816 L304.9897,380.0019" stroke="#000000" stroke-width="0.24" fill="none" />
  <path d="M277.1555,412.9372 C277.1015,416.779 277.0916,420.6274 277.2585,424.4647 C277.3999,427.7159 278.959,429.1413 281.6372,428.8704 C283.5706,428.6748 284.5495,427.4429 285.0989,425.7307 C287.1287,419.4045 284.8658,412.4447 279.4748,408.6615 L265.5075,399.0464" stroke="#000000" stroke-width="0.24" fill="none" />
  <path d="M275.1139,410.914 C276.5843,410.9004 277.1772,411.3957 277.1555,412.9372" stroke="#000000" stroke-width="0.24" fill="none" />
  <path d="M258.36,410.934 L275.1139,410.914" stroke="#000000" stroke-width="0.24" fill="none" />
  <path d="M256.312,412.9138 C256.2076,411.3236 256.9176,410.9235 258.36,410.934" stroke="#000000" stroke-width="0.24" fill="none" />
  <path d="M296.456,395.0326 C302.7565,399.3191 306.2285,405.3299 306.4174,412.9282 C306.5535,418.4046 306.3635,423.9183 305.8567,429.3723 C305.4493,433.7552 302.7686,437.0494 298.9538,439.1238 C288.1955,444.9738 277.203,445.1343 266.2251,439.7929 C260.5374,437.0255 257.6396,432.1272 257.0552,425.935 C256.6471,421.6099 256.5968,417.2521 256.312,412.9138" stroke="#000000" stroke-width="0.24" fill="none" />
  <path d="M282.1301,385.5737 C287.0593,388.4649 291.724,391.8132 296.456,395.0326" stroke="#000000" stroke-width="0.24" fill="none" />
  <path d="M283.9998,372.0388 C283.9277,370.0718 283.0629,368.6712 280.9495,368.4573 C279.1209,368.2721 277.4898,369.5153 277.0993,371.5782 C276.0328,377.2122 276.6179,382.3405 282.1301,385.5737" stroke="#000000" stroke-width="0.24" fill="none" />
  <path d="M284.1363,379.4296 L283.9998,372.0388" stroke="#000000" stroke-width="0.24" fill="none" />
  <path d="M286.3757,381.7234 C284.653,381.7842 284.0947,381.0969 284.1363,379.4296" stroke="#000000" stroke-width="0.24" fill="none" />
  <path d="M294.6431,381.6974 L286.3757,381.7234" stroke="#000000" stroke-width="0.24" fill="none" />
  <path d="M153.2359,390.5138 L147.8581,355.2763 L147.6858,353.275" stroke="#000000" stroke-width="0.24" fill="none" />
  <path d="M160.6591,440.6146 L153.2359,390.5138" stroke="#000000" stroke-width="0.24" fill="none" />
  <path d="M163.6393,442.984 C161.8612,442.9947 160.9553,442.6827 160.6591,440.6146" stroke="#000000" stroke-width="0.24" fill="none" />
  <path d="M193.6559,443.0158 C183.6519,442.8799 173.6448,442.9243 163.6393,442.984" stroke="#000000" stroke-width="0.24" fill="none" />
  <path d="M196.9186,440.2057 C196.6486,442.3669 195.8904,443.0461 193.6559,443.0158" stroke="#000000" stroke-width="0.24" fill="none" />
  <path d="M208.2787,353.5237 L206.7871,365.2158 L202.6917,395.5953 L196.9186,440.2057" stroke="#000000" stroke-width="0.24" fill="none" />
  <path d="M185.9627,353.2146 L206.6256,353.2848 L208.2787,353.5237" stroke="#000000" stroke-width="0.24" fill="none" />
  <path d="M183.4328,355.5665 C183.5765,353.868 184.1504,353.1877 185.9627,353.2146" stroke="#000000" stroke-width="0.24" fill="none" />
  <path d="M178.3553,411.6159 L178.9308,407.5492 L183.4328,355.5665" stroke="#000000" stroke-width="0.24" fill="none" />
  <path d="M172.3041,354.8928 L175.574,385.1526 C176.4692,393.9425 177.2087,402.7484 178.3553,411.6159" stroke="#000000" stroke-width="0.24" fill="none" />
  <path d="M170.3819,353.2415 C171.6308,353.1857 172.1642,353.5491 172.3041,354.8928" stroke="#000000" stroke-width="0.24" fill="none" />
  <path d="M164.7272,353.2744 L170.3819,353.2415" stroke="#000000" stroke-width="0.24" fill="none" />
  <path d="M147.6858,353.275 L164.7272,353.2744" stroke="#000000" stroke-width="0.24" fill="none" />
  <path d="M248.5326,353.2093 L248.5326,441.7264" stroke="#000000" stroke-width="0.24" fill="none" />
  <path d="M219.8511,353.2093 L248.5326,353.2093" stroke="#000000" stroke-width="0.24" fill="none" />
</svg>